# xmcd
#
# Track frame offsets:
#	150
#	18587
#	34512
#	49470
#	70587
#	91400
#	108735
#	124950
#	143677
#	161065
#
# Disc length: 2422 seconds
#
# Revision: 1
# Processed by: cddbd v1.5PL3 Copyright (c) Steve Scherf et al.
# Submitted via: CDex 1.50Beta5
#
DISCID=8a09740a
DTITLE=中森明菜 - AKINA NAKAMORI 20th ANNIVERSARY BEST Disc 1
DYEAR=2001
DGENRE=Pop
TTITLE0=スローモーション
TTITLE1=少女A
TTITLE2=1/2の神話
TTITLE3=トワイライト-夕暮れ便り-
TTITLE4=北ウイング
TTITLE5=サザン・ウインド
TTITLE6=十戒(1984)
TTITLE7=飾りじゃないのよ涙は
TTITLE8=ミ・アモーレ[Meu amor e…]
TTITLE9=SAND BEIGE-砂漠へ-
EXTD=
EXTT0=
EXTT1=
EXTT2=
EXTT3=
EXTT4=
EXTT5=
EXTT6=
EXTT7=
EXTT8=
EXTT9=
PLAYORDER=
